<svg xmlns="http://www.w3.org/2000/svg" xmlns:xlink="http://www.w3.org/1999/xlink" width="2000" zoomAndPan="magnify" viewBox="0 0 1500 1499.999933" height="2000" preserveAspectRatio="xMidYMid meet" version="1.0"><defs><clipPath id="c85f302281"><path d="M 21.824219 0 L 1500 0 L 1500 1478.25 L 21.824219 1478.25 Z M 21.824219 0 " clip-rule="nonzero"/></clipPath></defs><g clip-path="url(#c85f302281)"><path fill="#000000" d="M 1481.789062 1085.183594 C 1492.582031 1114.023438 1498.875 1144.996094 1499.828125 1177.394531 C 1500.0625 1180.480469 1500.0625 1183.566406 1500.0625 1186.769531 C 1500.0625 1347.699219 1369.515625 1478.242188 1208.589844 1478.242188 C 553.140625 1478.242188 21.824219 946.925781 21.824219 291.46875 C 21.824219 130.550781 152.367188 0 313.292969 0 C 316.5 0 319.585938 0 322.671875 0.238281 C 355.066406 1.191406 386.160156 7.484375 414.996094 18.277344 L 524.421875 492.039062 C 524.421875 492.273438 524.300781 492.390625 524.0625 492.511719 L 323.378906 582.703125 L 322.789062 582.945312 C 414.882812 863.375 636.691406 1085.183594 917.121094 1177.28125 L 917.359375 1176.683594 L 1007.675781 975.882812 L 1481.789062 1085.183594 " fill-opacity="1" fill-rule="nonzero"/></g></svg>