<svg xmlns="http://www.w3.org/2000/svg" xmlns:xlink="http://www.w3.org/1999/xlink" width="2000" zoomAndPan="magnify" viewBox="0 0 1500 1499.999933" height="2000" preserveAspectRatio="xMidYMid meet" version="1.0"><rect x="-150" width="1800" fill="#ffffff" y="-149.999993" height="1799.99992" fill-opacity="1"/><rect x="-150" width="1800" fill="#fcfdfd" y="-149.999993" height="1799.99992" fill-opacity="1"/><path fill="#000b3d" d="M 750 1500.175781 L 749.644531 1500.175781 C 570.921875 1500.175781 397.871094 1436.347656 262.410156 1320.390625 C 128.367188 1205.671875 38.652344 1047.339844 9.75 874.289062 C 7.625 862.058594 15.957031 850.53125 28.191406 848.402344 C 40.425781 846.277344 51.949219 854.609375 54.078125 866.84375 C 81.207031 1029.433594 165.601562 1178.546875 291.667969 1286.171875 C 419.148438 1395.210938 581.738281 1455.140625 749.824219 1455.140625 C 762.234375 1455.140625 772.519531 1465.25 772.519531 1477.660156 C 772.519531 1490.070312 762.589844 1500.175781 750.175781 1500.175781 Z M 750 1500.175781 " fill-opacity="1" fill-rule="nonzero"/><path fill="#000b3d" d="M 869.859375 1490.425781 C 859.042969 1490.425781 849.46875 1482.625 847.695312 1471.632812 C 845.746094 1459.398438 853.902344 1447.871094 866.136719 1445.746094 C 1028.902344 1418.792969 1178.015625 1334.398438 1285.816406 1208.332031 C 1394.859375 1080.851562 1454.964844 918.085938 1454.964844 750.175781 L 1454.964844 748.582031 C 1454.964844 736.171875 1465.070312 726.0625 1477.480469 726.0625 C 1489.894531 726.0625 1500 736.171875 1500 748.582031 L 1500 750 C 1500 928.902344 1436.171875 1102.128906 1320.035156 1237.589844 C 1205.320312 1371.632812 1046.808594 1461.347656 873.582031 1490.25 C 872.339844 1490.425781 871.097656 1490.601562 869.859375 1490.601562 Z M 869.859375 1490.425781 " fill-opacity="1" fill-rule="nonzero"/><path fill="#000b3d" d="M 21.984375 773.226562 C 9.574219 773.226562 -0.53125 763.121094 -0.53125 750.710938 L -0.53125 750 C -0.53125 571.453125 63.296875 398.402344 179.078125 262.941406 C 293.617188 128.902344 451.949219 39.183594 625 10.105469 C 637.234375 8.15625 648.757812 16.3125 650.886719 28.546875 C 653.015625 40.78125 644.679688 52.304688 632.445312 54.433594 C 469.859375 81.558594 321.097656 165.957031 213.296875 292.019531 C 104.433594 419.503906 44.503906 582.09375 44.503906 750 L 44.503906 750.710938 C 44.503906 763.121094 34.398438 773.226562 21.984375 773.226562 Z M 21.984375 773.226562 " fill-opacity="1" fill-rule="nonzero"/><path fill="#000b3d" d="M 1467.375 651.242188 C 1456.558594 651.242188 1447.164062 643.441406 1445.210938 632.445312 C 1417.90625 470.035156 1333.511719 321.277344 1207.445312 213.476562 C 1079.964844 104.609375 917.375 44.679688 749.644531 44.679688 L 748.402344 44.679688 C 735.992188 44.679688 725.886719 34.574219 725.886719 22.164062 C 725.886719 9.75 735.992188 -0.355469 748.402344 -0.355469 L 749.644531 -0.355469 C 928.191406 -0.355469 1101.0625 63.476562 1236.703125 179.253906 C 1370.746094 293.792969 1460.460938 451.949219 1489.539062 624.824219 C 1491.667969 637.058594 1483.332031 648.582031 1471.097656 650.710938 C 1469.859375 650.886719 1468.617188 651.0625 1467.375 651.0625 Z M 1467.375 651.242188 " fill-opacity="1" fill-rule="nonzero"/><path fill="#00bf63" d="M 610.636719 698.050781 L 633.511719 672.164062 C 652.480469 650.886719 662.058594 623.226562 660.636719 594.503906 C 659.21875 565.78125 646.984375 539.363281 626.0625 520.035156 L 587.410156 484.21875 C 567.90625 466.3125 542.90625 456.382812 516.667969 456.382812 C 486.878906 456.382812 458.332031 469.328125 438.296875 491.84375 L 415.425781 517.730469 C 412.410156 521.097656 409.574219 524.644531 406.914062 528.546875 L 405.851562 529.789062 C 384.21875 548.757812 365.78125 594.679688 376.417969 651.0625 C 425.710938 913.296875 642.019531 1113.296875 902.480469 1137.058594 C 936.703125 1140.25 968.792969 1132.980469 993.261719 1117.730469 C 1003.015625 1111.878906 1011.703125 1104.789062 1018.972656 1096.453125 L 1041.84375 1070.566406 C 1080.851562 1026.417969 1077.480469 958.15625 1034.398438 918.261719 L 995.746094 882.445312 C 976.242188 864.539062 951.242188 854.609375 925 854.609375 C 895.210938 854.609375 866.667969 867.554688 846.808594 890.070312 L 823.757812 915.957031 C 814.007812 926.949219 806.558594 939.714844 801.949219 953.902344 L 799.824219 960.105469 L 793.792969 957.625 C 691.488281 916.3125 607.980469 838.121094 558.867188 737.410156 L 555.675781 730.671875 L 562.589844 728.546875 C 581.027344 722.871094 597.519531 712.234375 610.285156 697.695312 Z M 610.636719 698.050781 " fill-opacity="1" fill-rule="nonzero"/><path fill="#00bf63" d="M 739.539062 387.234375 C 739.539062 401.0625 750.53125 412.410156 764.183594 412.410156 C 936.523438 412.410156 1076.773438 555.671875 1076.773438 731.738281 C 1076.773438 745.566406 1087.765625 756.914062 1101.417969 756.914062 C 1115.070312 756.914062 1126.0625 745.746094 1126.0625 731.738281 C 1126.0625 527.835938 963.652344 362.058594 764.183594 362.058594 C 750.53125 362.058594 739.539062 373.40625 739.539062 387.234375 Z M 739.539062 387.234375 " fill-opacity="1" fill-rule="nonzero"/><path fill="#00bf63" d="M 735.460938 510.105469 C 735.460938 523.9375 746.453125 535.285156 760.105469 535.285156 C 868.261719 535.285156 956.382812 625.175781 956.382812 735.816406 C 956.382812 749.644531 967.375 760.992188 981.027344 760.992188 C 994.679688 760.992188 1005.671875 749.824219 1005.671875 735.816406 C 1005.671875 597.519531 895.566406 485.105469 760.285156 485.105469 C 746.632812 485.105469 735.636719 496.277344 735.636719 510.285156 Z M 735.460938 510.105469 " fill-opacity="1" fill-rule="nonzero"/></svg>