<svg xmlns="http://www.w3.org/2000/svg" xmlns:xlink="http://www.w3.org/1999/xlink" width="2000" zoomAndPan="magnify" viewBox="0 0 1500 1499.999933" height="2000" preserveAspectRatio="xMidYMid meet" version="1.0"><defs><filter x="0%" y="0%" width="100%" height="100%" id="c28dc8a5ce"><feColorMatrix values="0 0 0 0 1 0 0 0 0 1 0 0 0 0 1 0 0 0 1 0" color-interpolation-filters="sRGB"/></filter><mask id="a74316ad83"><g filter="url(#c28dc8a5ce)"><rect x="-150" width="1800" fill="#000000" y="-149.999993" height="1799.99992" fill-opacity="0.35"/></g></mask><clipPath id="c33d0c771c"><path d="M 0 0.726562 L 1500 0.726562 L 1500 1497.726562 L 0 1497.726562 Z M 0 0.726562 " clip-rule="nonzero"/></clipPath><clipPath id="55b4a58c72"><rect x="0" width="1500" y="0" height="1498"/></clipPath></defs><g mask="url(#a74316ad83)"><g transform="matrix(1, 0, 0, 1, 0, 2)"><g clip-path="url(#55b4a58c72)"><g clip-path="url(#c33d0c771c)"><path fill="#2a383f" d="M 1500.164062 752.195312 C 1500.164062 337.140625 1163.75 0.726562 748.761719 0.726562 C 333.777344 0.726562 -2.703125 337.140625 -2.703125 752.195312 C -2.703125 1104.59375 239.894531 1400.335938 567.203125 1481.539062 L 567.203125 981.84375 L 412.214844 981.84375 L 412.214844 752.195312 L 567.203125 752.195312 L 567.203125 653.253906 C 567.203125 397.503906 682.9375 278.9375 934.03125 278.9375 C 981.648438 278.9375 1063.796875 288.242188 1097.382812 297.617188 L 1097.382812 505.753906 C 1079.644531 503.863281 1048.824219 502.917969 1010.582031 502.917969 C 887.363281 502.917969 839.746094 549.589844 839.746094 670.925781 L 839.746094 752.128906 L 1085.175781 752.128906 L 1043.023438 981.777344 L 839.746094 981.777344 L 839.746094 1498.0625 C 1211.835938 1453.144531 1500.164062 1136.292969 1500.164062 752.128906 Z M 1500.164062 752.195312 " fill-opacity="1" fill-rule="nonzero"/></g></g></g></g></svg>