<svg xmlns="http://www.w3.org/2000/svg" xmlns:xlink="http://www.w3.org/1999/xlink" width="2000" zoomAndPan="magnify" viewBox="0 0 1500 1499.999933" height="2000" preserveAspectRatio="xMidYMid meet" version="1.0"><path fill="#0866ff" d="M 1500.203125 750.132812 C 1500.203125 335.816406 1164.386719 0 750.132812 0 C 335.882812 0 0 335.816406 0 750.132812 C 0 1101.90625 242.167969 1397.128906 568.894531 1478.1875 L 568.894531 979.375 L 414.183594 979.375 L 414.183594 750.132812 L 568.894531 750.132812 L 568.894531 651.367188 C 568.894531 396.074219 684.425781 277.714844 935.078125 277.714844 C 982.609375 277.714844 1064.609375 287.007812 1098.136719 296.363281 L 1098.136719 504.128906 C 1080.429688 502.246094 1049.664062 501.300781 1011.488281 501.300781 C 888.488281 501.300781 840.957031 547.890625 840.957031 669.007812 L 840.957031 750.066406 L 1085.953125 750.066406 L 1043.875 979.308594 L 840.957031 979.308594 L 840.957031 1494.679688 C 1212.386719 1449.84375 1500.203125 1133.550781 1500.203125 750.066406 Z M 1500.203125 750.132812 " fill-opacity="1" fill-rule="nonzero"/><path fill="#ffffff" d="M 1043.941406 979.308594 L 1086.019531 750.066406 L 841.023438 750.066406 L 841.023438 669.007812 C 841.023438 547.890625 888.554688 501.300781 1011.558594 501.300781 C 1049.730469 501.300781 1080.5 502.246094 1098.203125 504.128906 L 1098.203125 296.363281 C 1064.675781 287.074219 982.675781 277.714844 935.144531 277.714844 C 684.492188 277.714844 568.964844 396.074219 568.964844 651.367188 L 568.964844 750.132812 L 414.25 750.132812 L 414.25 979.375 L 568.964844 979.375 L 568.964844 1478.1875 C 626.996094 1492.59375 687.65625 1500.269531 750.203125 1500.269531 C 780.96875 1500.269531 811.265625 1498.382812 841.089844 1494.75 L 841.089844 979.375 L 1044.007812 979.375 Z M 1043.941406 979.308594 " fill-opacity="1" fill-rule="nonzero"/></svg>