<svg xmlns="http://www.w3.org/2000/svg" xmlns:xlink="http://www.w3.org/1999/xlink" width="2000" zoomAndPan="magnify" viewBox="0 0 1500 1499.999933" height="2000" preserveAspectRatio="xMidYMid meet" version="1.0"><defs><clipPath id="28cfb32b5c"><path d="M 39 204.152344 L 1460 204.152344 L 1460 1296.152344 L 39 1296.152344 Z M 39 204.152344 " clip-rule="nonzero"/></clipPath></defs><g clip-path="url(#28cfb32b5c)"><path fill="#ff3131" d="M 1454.855469 266.046875 C 1448.183594 246.378906 1434.992188 229.734375 1417.832031 218.675781 C 1403.640625 209.527344 1386.792969 204.152344 1368.691406 204.152344 L 130.972656 204.152344 C 112.867188 204.152344 96.023438 209.527344 81.832031 218.675781 C 64.667969 229.734375 51.480469 246.378906 44.808594 266.046875 C 41.699219 275.210938 39.941406 284.988281 39.941406 295.183594 L 39.941406 1205.082031 C 39.941406 1237.175781 56.671875 1265.378906 81.832031 1281.59375 C 96.023438 1290.738281 112.867188 1296.113281 130.972656 1296.113281 L 1368.691406 1296.113281 C 1386.792969 1296.113281 1403.640625 1290.738281 1417.832031 1281.59375 C 1442.988281 1265.378906 1459.722656 1237.175781 1459.722656 1205.082031 L 1459.722656 295.183594 C 1459.722656 284.984375 1457.960938 275.210938 1454.855469 266.046875 Z M 1208.800781 246.042969 L 749.832031 632.445312 L 290.863281 246.042969 Z M 255.523438 1254.222656 L 255.523438 498.207031 L 749.832031 914.359375 L 1244.136719 498.207031 L 1244.136719 1254.222656 Z M 1417.832031 1205.082031 C 1417.832031 1232.175781 1395.785156 1254.222656 1368.691406 1254.222656 L 1286.03125 1254.222656 L 1286.03125 408.179688 L 1244.136719 443.445312 L 884.738281 746.023438 L 852.21875 773.402344 L 749.832031 859.597656 L 647.445312 773.402344 L 614.921875 746.023438 L 255.523438 443.449219 L 213.632812 408.179688 L 213.632812 1254.222656 L 130.972656 1254.222656 C 103.875 1254.222656 81.832031 1232.175781 81.832031 1205.082031 L 81.832031 295.183594 C 81.832031 268.089844 103.875 246.042969 130.972656 246.042969 L 225.820312 246.042969 L 255.523438 271.050781 L 717.308594 659.824219 L 749.832031 687.203125 L 782.351562 659.824219 L 1244.136719 271.050781 L 1273.839844 246.042969 L 1368.691406 246.042969 C 1395.785156 246.042969 1417.832031 268.089844 1417.832031 295.183594 Z M 1417.832031 1205.082031 " fill-opacity="1" fill-rule="nonzero"/></g></svg>