<svg xmlns="http://www.w3.org/2000/svg" xmlns:xlink="http://www.w3.org/1999/xlink" width="2000" zoomAndPan="magnify" viewBox="0 0 1500 1499.999933" height="2000" preserveAspectRatio="xMidYMid meet" version="1.0"><defs><clipPath id="8ccd656a97"><path d="M 4.089844 0 L 1495.839844 0 L 1495.839844 1500 L 4.089844 1500 Z M 4.089844 0 " clip-rule="nonzero"/></clipPath></defs><g clip-path="url(#8ccd656a97)"><path fill="#65cf72" d="M 1278.339844 218.566406 C 1138.132812 78.203125 951.683594 0.761719 753.003906 0.761719 C 343.644531 0.761719 10.464844 333.878906 10.316406 743.402344 C 10.316406 874.28125 44.480469 1002.117188 109.46875 1114.6875 L 4.089844 1499.535156 L 397.816406 1396.226562 C 506.304688 1455.441406 628.433594 1486.566406 752.707031 1486.640625 L 753.003906 1486.640625 C 1162.289062 1486.640625 1495.542969 1153.449219 1495.617188 743.996094 C 1495.617188 545.535156 1418.546875 359.003906 1278.265625 218.566406 Z M 753.003906 1361.25 L 752.78125 1361.25 C 642.066406 1361.25 533.355469 1331.457031 438.574219 1275.207031 L 416.046875 1261.792969 L 182.390625 1323.082031 L 244.710938 1095.273438 L 230.039062 1071.929688 C 168.234375 973.660156 135.628906 860.050781 135.703125 743.402344 C 135.851562 403.097656 412.785156 126.152344 753.226562 126.152344 C 918.113281 126.152344 1073.066406 190.480469 1189.636719 307.199219 C 1306.203125 423.847656 1370.304688 578.957031 1370.230469 743.921875 C 1370.082031 1084.304688 1093.148438 1361.25 752.929688 1361.25 Z M 1091.59375 898.957031 C 1073.066406 889.695312 981.84375 844.785156 964.796875 838.632812 C 947.753906 832.410156 935.453125 829.371094 923.078125 847.898438 C 910.703125 866.5 875.128906 908.296875 864.3125 920.671875 C 853.492188 933.046875 842.671875 934.605469 824.070312 925.265625 C 805.546875 916.003906 745.742188 896.363281 674.824219 833.148438 C 619.6875 783.941406 582.414062 723.171875 571.59375 704.570312 C 560.773438 685.96875 570.480469 675.964844 579.746094 666.703125 C 588.042969 658.402344 598.269531 644.988281 607.609375 634.167969 C 616.871094 623.347656 619.984375 615.566406 626.136719 603.191406 C 632.359375 590.8125 629.246094 579.996094 624.578125 570.65625 C 619.910156 561.394531 582.855469 470.015625 567.371094 432.890625 C 552.324219 396.722656 536.984375 401.613281 525.648438 401.023438 C 514.828125 400.503906 502.453125 400.355469 490.078125 400.355469 C 477.699219 400.355469 457.617188 404.949219 440.574219 423.550781 C 423.53125 442.152344 375.65625 487.0625 375.65625 578.363281 C 375.65625 669.667969 442.128906 757.929688 451.46875 770.378906 C 460.730469 782.757812 582.339844 970.175781 768.492188 1050.585938 C 812.734375 1069.703125 847.339844 1081.117188 874.316406 1089.714844 C 918.777344 1103.867188 959.242188 1101.867188 991.179688 1097.050781 C 1026.824219 1091.714844 1100.929688 1052.140625 1116.417969 1008.789062 C 1131.90625 965.433594 1131.90625 928.304688 1127.238281 920.523438 C 1122.570312 912.742188 1110.195312 908.148438 1091.667969 898.808594 Z M 1091.59375 898.957031 " fill-opacity="1" fill-rule="evenodd"/></g></svg>